<?xml version="1.0" encoding="utf-8"?>
<!-- Generator: Adobe Illustrator 16.0.0, SVG Export Plug-In . SVG Version: 6.00 Build 0)  -->
<!DOCTYPE svg PUBLIC "-//W3C//DTD SVG 1.1//EN" "http://www.w3.org/Graphics/SVG/1.1/DTD/svg11.dtd">
<svg version="1.1" id="Layer_1" xmlns="http://www.w3.org/2000/svg" xmlns:xlink="http://www.w3.org/1999/xlink" x="0px" y="0px"
	 width="200px" height="35px" viewBox="0 0 200 35" enable-background="new 0 0 200 35" xml:space="preserve">
<g>
	<g>
		<path fill="#FFFFFF" d="M19.638,32.426c-0.726,0-1.281-0.128-1.491-1.019l-5.03-16.466v16.466c0,0.594-0.432,1.019-1.026,1.019
			H6.545c-0.598,0-1.022-0.425-1.022-1.019V3.595c0-0.553,0.467-1.024,1.062-1.024H15.8c0.596,0,1.235,0.13,1.493,0.938
			l5.071,17.231l5.121-17.231C27.744,2.7,28.378,2.57,28.977,2.57h9.171c0.597,0,1.064,0.472,1.064,1.024v27.812
			c0,0.594-0.424,1.019-1.02,1.019h-5.548c-0.595,0-1.024-0.425-1.024-1.019V14.941l-5.029,16.466
			c-0.215,0.891-0.771,1.019-1.497,1.019H19.638z"/>
		<path fill="#FFFFFF" d="M59.649,1.933c8.998,0,16.082,6.906,16.082,15.568c0,8.656-7.084,15.566-16.082,15.566
			c-9.045,0-16.124-6.91-16.124-15.566C43.525,8.839,50.604,1.933,59.649,1.933z M59.694,26.028c4.732,0,8.017-3.835,8.017-8.527
			S64.426,8.97,59.694,8.97c-4.741,0-8.15,3.839-8.15,8.531S54.953,26.028,59.694,26.028z"/>
		<path fill="#FFFFFF" d="M95.607,3.339c0.213-0.471,0.638-0.769,1.191-0.769h6.74c0.639,0,1.023,0.387,1.023,0.896
			c0,0.169-0.039,0.559-0.215,0.854L94.242,22.193v9.169c0,0.598-0.47,1.063-1.023,1.063h-5.589c-0.599,0-1.065-0.466-1.065-1.063
			v-9.169L76.459,4.32c-0.175-0.295-0.217-0.685-0.217-0.854c0-0.51,0.386-0.896,1.025-0.896H84.3c0.559,0,0.983,0.298,1.197,0.769
			l5.074,10.023L95.607,3.339z"/>
		<path fill="#FFFFFF" d="M115.911,25.177h14.328c0.598,0,1.068,0.467,1.068,1.064v5.121c0,0.598-0.471,1.063-1.068,1.063h-20.943
			c-0.594,0-1.066-0.466-1.066-1.021V3.636c0-0.594,0.473-1.065,1.066-1.065h5.545c0.6,0,1.07,0.472,1.07,1.065V25.177z"/>
		<path fill="#FFFFFF" d="M154.427,2.57c0.424,0,1.105,0.258,1.324,1.065l8.742,27.043c0.084,0.301,0.125,0.684,0.125,0.852
			c0,0.471-0.344,0.896-0.979,0.896h-6.914c-0.551,0-0.934-0.509-1.061-1.021l-1.369-4.736h-10.492l-1.363,4.736
			c-0.125,0.512-0.512,1.021-1.066,1.021h-6.523c-0.641,0-0.98-0.425-0.98-0.896c0-0.168,0.043-0.551,0.129-0.852l8.74-27.043
			c0.213-0.808,0.893-1.065,1.322-1.065H154.427z M145.894,19.503h6.316l-3.16-10.874L145.894,19.503z"/>
		<path fill="#FFFFFF" d="M194.478,31.405c0,0.596-0.512,1.021-1.062,1.021h-6.445c-1.105,0-1.838-0.299-2.215-1.063l-8.787-17.315
			v17.358c0,0.596-0.428,1.021-1.025,1.021h-5.586c-0.596,0-1.064-0.425-1.064-1.021V3.595c0-0.553,0.469-1.024,1.064-1.024h7.678
			c0.598,0,1.109,0.171,1.447,0.857l8.32,16.802V3.595c0-0.553,0.465-1.024,1.023-1.024h5.59c0.551,0,1.062,0.472,1.062,1.024
			V31.405z"/>
	</g>
</g>
</svg>
